<svg width="16" height="16" viewBox="0 0 16 16" fill="none" xmlns="http://www.w3.org/2000/svg">
<path fill-rule="evenodd" clip-rule="evenodd" d="M10.2254 3.36248C12.1205 5.25762 12.1205 8.33025 10.2254 10.2254C8.33027 12.1205 5.25764 12.1205 3.3625 10.2254C1.46735 8.33025 1.46735 5.25762 3.3625 3.36248C5.25764 1.46734 8.33027 1.46734 10.2254 3.36248ZM12.2342 10.8649C14.2308 8.20371 14.0187 4.41066 11.598 1.9899C8.94479 -0.663299 4.64311 -0.663299 1.98991 1.9899C-0.663284 4.6431 -0.663284 8.94478 1.98991 11.598C4.4107 14.0188 8.2038 14.2308 10.865 12.2341C10.8799 12.2513 10.8955 12.268 10.9117 12.2842L14.3432 15.7157C14.7222 16.0947 15.3368 16.0947 15.7158 15.7157C16.0948 15.3367 16.0948 14.7221 15.7158 14.3431L12.2843 10.9117C12.268 10.8954 12.2513 10.8798 12.2342 10.8649Z" fill="#B1B1B1"/>
</svg>
