<svg width="15" height="15" viewBox="0 0 15 15" fill="none" xmlns="http://www.w3.org/2000/svg">
<path d="M8.68421 13.8947C8.68421 14.5048 8.18969 15 7.57895 15C6.96821 15 6.47369 14.5048 6.47369 13.8947C6.47369 13.2846 6.96821 12.7895 7.57895 12.7895C8.18969 12.7895 8.68421 13.2846 8.68421 13.8947ZM7.57895 0C6.88169 0 6.31579 0.565895 6.31579 1.26316C6.31579 1.96042 6.88169 2.52632 7.57895 2.52632C8.27621 2.52632 8.84211 1.96042 8.84211 1.26316C8.84211 0.565895 8.27621 0 7.57895 0ZM13.8947 6.78948C14.3299 6.78948 14.6836 7.14379 14.6836 7.57895C14.6836 8.01474 14.3299 8.36842 13.8947 8.36842C13.459 8.36842 13.1059 8.01537 13.1059 7.57895C13.1059 7.14379 13.459 6.78948 13.8947 6.78948ZM0 7.57895C0 8.27685 0.565895 8.84211 1.26316 8.84211C1.96042 8.84211 2.52632 8.27685 2.52632 7.57895C2.52632 6.88169 1.96042 6.31579 1.26316 6.31579C0.565895 6.31579 0 6.88169 0 7.57895ZM12 2.52632C12.348 2.52632 12.6316 2.8099 12.6316 3.1579C12.6316 3.50716 12.348 3.79074 12 3.78948C11.652 3.78948 11.3684 3.50716 11.3684 3.15916C11.3684 2.8099 11.652 2.52632 12 2.52632ZM12 11.0526C12.523 11.0526 12.9474 11.4771 12.9474 12C12.9474 12.523 12.523 12.948 11.9987 12.9474C11.4771 12.9474 11.0526 12.5236 11.0526 12.0006C11.0526 11.4771 11.4771 11.0526 12 11.0526ZM3.1579 1.89474C3.85516 1.89474 4.42105 2.46063 4.42105 3.1579C4.42105 3.85516 3.85516 4.42105 3.15726 4.42105C2.46063 4.42105 1.89474 3.85579 1.89474 3.1579C1.89474 2.46 2.46063 1.89474 3.1579 1.89474ZM3.1579 10.7368C3.85516 10.7368 4.42105 11.3027 4.42105 12C4.42105 12.6973 3.85516 13.2632 3.15726 13.2632C2.46063 13.2632 1.89474 12.6979 1.89474 12C1.89474 11.3021 2.46063 10.7368 3.1579 10.7368Z" fill="#8E2BFF"/>
</svg>
